<svg width="23" height="23" fill="none" xmlns="http://www.w3.org/2000/svg"><path d="M11.44 6.774c-2.84 0-5.193 2.313-5.193 5.193a5.176 5.176 0 005.192 5.192c2.88 0 5.192-2.353 5.192-5.192 0-2.84-2.352-5.193-5.192-5.193zm0 8.519a3.341 3.341 0 01-3.327-3.326 3.34 3.34 0 013.326-3.327 3.342 3.342 0 013.326 3.327 3.34 3.34 0 01-3.326 3.326zm5.394-7.463a1.176 1.176 0 100-2.353 1.176 1.176 0 000 2.352z" fill="#000"/><path d="M19.877 3.61c-1.055-1.095-2.556-1.663-4.26-1.663H7.261c-3.53 0-5.882 2.353-5.882 5.882v8.316c0 1.744.568 3.245 1.704 4.34 1.095 1.055 2.555 1.582 4.219 1.582h8.275c1.744 0 3.204-.568 4.259-1.582 1.095-1.055 1.663-2.555 1.663-4.3V7.83c0-1.704-.568-3.164-1.622-4.219zm-.163 12.575c0 1.258-.446 2.272-1.176 2.962-.73.69-1.744 1.054-2.961 1.054H7.302c-1.217 0-2.231-.365-2.962-1.054-.73-.73-1.095-1.745-1.095-3.002V7.829c0-1.217.365-2.23 1.095-2.961.69-.69 1.745-1.055 2.962-1.055h8.356c1.217 0 2.23.365 2.961 1.095.69.73 1.095 1.745 1.095 2.921v8.356z" fill="#000"/></svg>